# xmcd CD database file
#
# Track frame offsets:
#	150
#	29664
#	98554
#	165326
#	244363
#	290584
#	320222
#	347430
#
# Disc length: 4787 seconds
#
# Revision: 0
# Processed by: cddbd v1.5.1PL2 Copyright (c) Steve Scherf et al.
# Submitted via: CDex 1.51
#
DISCID=7012b108
DTITLE=Wind Project of Schärding - Konzert März 2006
DYEAR=2006
DGENRE=Wind Band
TTITLE0=Fritz Neuböck - Another Opening
TTITLE1=Marco Putz - Concerto for Bb Clarinet and Wind Band
TTITLE2=Leonard Bernstein - Divertimento
TTITLE3=Eric Whitacre - Godzilla eats Las Vegas
TTITLE4=Piet Swerts - Fantasy Tales
TTITLE5=John Williams - Summon the Heroes
TTITLE6=Frank Ticheli - Shenandoah
TTITLE7=Johann Strauss - Furioso Polka
EXTD=YEAR: 2006
EXTT0=
EXTT1=
EXTT2=
EXTT3=
EXTT4=
EXTT5=
EXTT6=
EXTT7=
PLAYORDER=
